<svg xmlns="http://www.w3.org/2000/svg" width="25" height="24" fill="none"><path fill="#838281" d="M7.885 18.89c-.08 0-.16-.01-.24-.02-.6-.08-1.11-.46-1.36-1l-1.26-2.77c-2-1.48-3.15-3.69-3.15-6.09 0-4.27 3.7-7.75 8.25-7.75 3.21 0 6.14 1.76 7.47 4.49.51 1.01.78 2.11.78 3.26 0 4.16-3.51 7.57-7.89 7.74l-1.26 1.52c-.34.39-.83.62-1.34.62Zm2.24-16.14c-3.72 0-6.75 2.8-6.75 6.25 0 1.97.98 3.79 2.68 4.99.11.08.2.18.25.3l1.34 2.95c.05.11.15.14.2.14.05.01.15 0 .22-.08l1.48-1.78c.14-.17.35-.27.58-.27 3.72 0 6.75-2.8 6.75-6.25 0-.91-.21-1.78-.62-2.59-1.08-2.23-3.49-3.66-6.13-3.66Z"/><path fill="#838281" d="M17.365 22.75c-.52 0-1-.23-1.34-.63l-1.26-1.51c-2.42-.1-4.7-1.21-6.16-3.01a.74.74 0 0 1 .01-.95l.93-1.12c.14-.17.35-.27.58-.27 3.72 0 6.75-2.8 6.75-6.25 0-.91-.21-1.78-.62-2.59a.75.75 0 0 1 .84-1.07c3.7.85 6.28 3.94 6.28 7.52 0 2.4-1.15 4.61-3.15 6.09l-1.26 2.77c-.26.56-.77.94-1.38 1.01-.07.01-.15.01-.22.01Zm-7.18-5.65c1.25 1.27 3.05 2.01 4.94 2.01.22 0 .43.1.58.27l1.48 1.78c.07.09.16.1.22.09.04 0 .15-.03.21-.15l1.34-2.95c.06-.12.14-.23.25-.3 1.7-1.2 2.68-3.02 2.68-4.99 0-2.4-1.47-4.53-3.71-5.58.14.56.21 1.13.21 1.72 0 4.16-3.51 7.57-7.89 7.74l-.31.36ZM12.625 9.75h-5c-.41 0-.75-.34-.75-.75s.34-.75.75-.75h5c.41 0 .75.34.75.75s-.34.75-.75.75Z"/></svg>