<svg xmlns="http://www.w3.org/2000/svg" width="14" height="14" fill="none"><path fill="#74B4ED" d="M2.608 7.1a.433.433 0 0 1-.31-.13l-.705-.705-.706.706a.44.44 0 0 1-.619 0 .44.44 0 0 1 0-.619l1.015-1.014a.44.44 0 0 1 .619 0l1.015 1.014c.169.17.169.45 0 .619a.423.423 0 0 1-.31.128ZM12.402 8.79a.433.433 0 0 1-.31-.127l-1.014-1.015a.44.44 0 0 1 0-.619.44.44 0 0 1 .618 0l.706.706.706-.706a.44.44 0 0 1 .618 0c.17.17.17.45 0 .619L12.71 8.663a.448.448 0 0 1-.31.128Z"/><path fill="#74B4ED" d="M12.402 8.79a.44.44 0 0 1-.438-.437V7A4.972 4.972 0 0 0 7 2.036c-1.51 0-2.922.676-3.873 1.86a.442.442 0 0 1-.613.07.436.436 0 0 1-.07-.612A5.801 5.801 0 0 1 7 1.167c3.22 0 5.84 2.619 5.84 5.839v1.353a.436.436 0 0 1-.438.432ZM7 12.84c-3.22 0-5.84-2.62-5.84-5.84V5.647a.44.44 0 0 1 .438-.438.44.44 0 0 1 .438.438V7A4.972 4.972 0 0 0 7 11.964c1.51 0 2.923-.677 3.873-1.86a.436.436 0 0 1 .683.542A5.807 5.807 0 0 1 7 12.839Z"/><path fill="#74B4ED" d="M7.805 7.438H5.25A.44.44 0 0 1 4.812 7V4.958a.44.44 0 0 1 .438-.437h2.555c.776 0 1.458.682 1.458 1.458 0 .805-.659 1.458-1.458 1.458Zm-2.117-.875h2.111c.321 0 .583-.263.583-.584 0-.262-.262-.583-.583-.583H5.687v1.167Z"/><path fill="#74B4ED" d="M8.167 9.48H5.25a.44.44 0 0 1-.438-.438V7a.44.44 0 0 1 .438-.438h2.917c.886 0 1.604.654 1.604 1.459s-.718 1.458-1.604 1.458Zm-2.48-.876h2.48c.402 0 .729-.262.729-.583 0-.321-.327-.584-.73-.584H5.688v1.167Z"/><path fill="#74B4ED" d="M6.883 10.5a.44.44 0 0 1-.437-.438v-1.02a.44.44 0 0 1 .437-.438.44.44 0 0 1 .438.438v1.02a.44.44 0 0 1-.438.438ZM6.883 5.396a.44.44 0 0 1-.437-.438v-1.02a.44.44 0 0 1 .437-.438.44.44 0 0 1 .438.438v1.02a.44.44 0 0 1-.438.438Z"/></svg>