<svg xmlns="http://www.w3.org/2000/svg" width="101" height="100" fill="none"><rect width="100" height="100" x=".5" fill="#007AFF" fill-opacity=".15" rx="50"/><path fill="#fff" fill-rule="evenodd" d="M65.5 40c0 8.284-6.715 15-15 15-8.284 0-15-6.716-15-15 0-8.284 6.716-15 15-15 8.285 0 15 6.716 15 15Zm-5 0c0 5.523-4.477 10-10 10-5.522 0-10-4.477-10-10s4.478-10 10-10c5.523 0 10 4.477 10 10Z" clip-rule="evenodd"/><path fill="#fff" d="M50.5 62.5c-16.185 0-29.976 9.571-35.23 22.98a50.283 50.283 0 0 0 4.039 3.6C23.22 76.77 35.492 67.5 50.5 67.5c15.008 0 27.28 9.27 31.191 21.58a50.304 50.304 0 0 0 4.039-3.6C80.478 72.071 66.687 62.5 50.5 62.5Z"/></svg>