<svg xmlns="http://www.w3.org/2000/svg" width="14" height="14" fill="none"><path fill="#74B4ED" d="M5.058 13.27H1.167a.44.44 0 0 1-.438-.437v-3.5c0-.886.718-1.604 1.604-1.604h2.725a.44.44 0 0 1 .437.438v4.666a.44.44 0 0 1-.437.438Zm-3.454-.874H4.62V8.604H2.333a.73.73 0 0 0-.729.73v3.062Z"/><path fill="#74B4ED" d="M8.943 13.27H5.052a.44.44 0 0 1-.438-.437V7c0-.887.718-1.604 1.604-1.604h1.558c.887 0 1.604.717 1.604 1.604v5.833c0 .24-.192.438-.437.438Zm-3.448-.874h3.016V7a.73.73 0 0 0-.73-.73H6.225a.73.73 0 0 0-.729.73v5.396Z"/><path fill="#74B4ED" d="M12.834 13.27H8.943a.44.44 0 0 1-.438-.437V9.917a.44.44 0 0 1 .438-.438h2.724c.886 0 1.604.718 1.604 1.604v1.75a.44.44 0 0 1-.438.438Zm-3.454-.874h3.016v-1.313a.73.73 0 0 0-.73-.729H9.38v2.042ZM7.992 4.87c-.14 0-.315-.04-.514-.157L7 4.427l-.472.28c-.479.286-.794.117-.91.035-.117-.081-.368-.338-.245-.875l.11-.484-.396-.396c-.245-.245-.333-.537-.245-.805.087-.269.326-.455.665-.514l.507-.087.286-.572c.315-.624 1.08-.624 1.388 0l.286.572.508.087c.338.059.583.245.665.514.087.268-.006.56-.245.805l-.397.396.11.484c.123.543-.127.794-.244.881a.593.593 0 0 1-.38.123ZM7 3.548c.14 0 .28.035.397.105l.326.192-.07-.315a.81.81 0 0 1 .21-.723l.298-.298-.368-.064a.82.82 0 0 1-.565-.42L7 1.587l-.222.437a.82.82 0 0 1-.565.42l-.368.058.298.298c.18.18.262.478.21.723l-.07.315.326-.192c.111-.07.251-.1.391-.1Z"/></svg>