<svg xmlns="http://www.w3.org/2000/svg" width="24" height="24" fill="none"><g fill="#0057A6" clip-path="url(#a)"><path fill-opacity=".7" d="M18 12.75H6c-.41 0-.75-.34-.75-.75s.34-.75.75-.75h12c.41 0 .75.34.75.75s-.34.75-.75.75Z"/><path fill-opacity=".7" d="M12 18.75c-.41 0-.75-.34-.75-.75V6c0-.41.34-.75.75-.75s.75.34.75.75v12c0 .41-.34.75-.75.75Z"/><path fill-rule="evenodd" d="M12 22.5c5.799 0 10.5-4.701 10.5-10.5S17.799 1.5 12 1.5 1.5 6.201 1.5 12 6.201 22.5 12 22.5Zm0 1.5c6.627 0 12-5.373 12-12S18.627 0 12 0 0 5.373 0 12s5.373 12 12 12Z" clip-rule="evenodd"/></g><defs><clipPath id="a"><rect width="24" height="24" fill="#fff" rx="8"/></clipPath></defs></svg>