<svg xmlns="http://www.w3.org/2000/svg" width="24" height="24" fill="none"><rect width="24" height="24" fill="#E93C3C" fill-opacity=".2" rx="5"/><g clip-path="url(#a)"><path fill="#E93C3C" fill-rule="evenodd" d="M3.6 5.4a1.8 1.8 0 0 1 1.8-1.8h13.2a1.8 1.8 0 0 1 1.8 1.8v1.65H3.6V5.4Zm0 3.15h16.8V15a1.8 1.8 0 0 1-1.8 1.8h-2.627l2.063 2.064a.9.9 0 0 1-1.272 1.272L13.427 16.8H12.9v2.7a.9.9 0 0 1-1.8 0v-2.7h-.527l-3.337 3.336a.9.9 0 1 1-1.272-1.272L8.027 16.8H5.4A1.8 1.8 0 0 1 3.6 15V8.55Z" clip-rule="evenodd"/></g><defs><clipPath id="a"><rect width="16.8" height="16.8" x="3.6" y="3.6" fill="#fff" rx="2"/></clipPath></defs></svg>