<svg xmlns="http://www.w3.org/2000/svg" width="25" height="24" fill="none"><path stroke="#838281" stroke-linecap="round" stroke-linejoin="round" stroke-width="2" d="M13.9 2H6.5a2 2 0 0 0-2 2v16a2 2 0 0 0 2 2h12a2 2 0 0 0 2-2v-7.4M2.5 6h4M2.5 10h4M2.5 14h4M2.5 18h4"/><path stroke="#838281" stroke-linecap="round" stroke-linejoin="round" stroke-width="2" d="M21.878 5.626a2.124 2.124 0 1 0-3.004-3.004l-5.01 5.012a2 2 0 0 0-.506.854l-.837 2.87a.5.5 0 0 0 .62.62l2.87-.837c.323-.094.616-.268.854-.506l5.013-5.009Z"/></svg>