<?xml version="1.0" standalone="no"?>
<!DOCTYPE svg PUBLIC "-//W3C//DTD SVG 20010904//EN"
 "http://www.w3.org/TR/2001/REC-SVG-20010904/DTD/svg10.dtd">
<svg version="1.0" xmlns="http://www.w3.org/2000/svg"
 width="1619.000000pt" height="2160.000000pt" viewBox="0 0 1619.000000 2160.000000"
 preserveAspectRatio="xMidYMid meet">

<g transform="translate(0.000000,2160.000000) scale(0.100000,-0.100000)"
fill="#000000" stroke="none">
<path d="M7510 17640 c-165 -11 -345 -35 -400 -55 -149 -52 -212 -140 -289
-400 -7 -22 -16 -49 -21 -60 -5 -11 -22 -65 -39 -120 -18 -55 -35 -109 -40
-120 -12 -28 -56 -160 -97 -290 -19 -60 -41 -118 -47 -129 -8 -11 -41 -26 -87
-37 -79 -20 -318 -94 -360 -111 -33 -14 -53 -22 -125 -48 -33 -12 -79 -31
-102 -41 -24 -11 -45 -19 -49 -19 -7 0 -122 -50 -219 -95 -38 -17 -85 -38
-102 -46 -18 -8 -33 -17 -33 -21 0 -5 -6 -8 -14 -8 -15 0 -57 -22 -225 -117
-51 -29 -96 -53 -100 -53 -5 0 -609 301 -641 320 -39 24 -247 120 -258 120 -7
0 -12 5 -12 10 0 6 -41 10 -104 10 -59 0 -108 -4 -111 -10 -3 -5 -13 -10 -21
-10 -20 0 -90 -48 -189 -129 -44 -36 -91 -75 -104 -86 -13 -11 -32 -27 -41
-35 -8 -8 -47 -42 -84 -75 -82 -71 -88 -77 -240 -225 -148 -144 -335 -343
-433 -461 -139 -169 -193 -240 -216 -282 -36 -64 -49 -173 -30 -242 8 -27 17
-60 20 -72 3 -13 9 -23 14 -23 5 0 9 -6 9 -12 0 -7 11 -33 25 -58 13 -25 99
-196 191 -380 92 -184 173 -347 180 -362 14 -28 8 -45 -86 -213 -71 -127 -186
-368 -220 -460 -4 -11 -17 -40 -28 -65 -11 -25 -31 -74 -43 -110 -12 -36 -26
-69 -29 -75 -4 -5 -13 -28 -19 -50 -7 -22 -21 -62 -31 -90 -10 -27 -30 -90
-45 -140 -75 -256 -66 -235 -110 -255 -22 -10 -69 -26 -105 -35 -36 -10 -69
-22 -75 -26 -5 -5 -19 -9 -31 -9 -13 0 -26 -4 -29 -10 -3 -5 -17 -10 -30 -10
-13 0 -26 -4 -29 -8 -3 -5 -30 -15 -61 -22 -31 -7 -58 -17 -61 -22 -3 -4 -14
-8 -25 -8 -10 0 -27 -4 -37 -9 -9 -6 -82 -31 -162 -57 -238 -76 -263 -86 -306
-115 -54 -37 -123 -115 -130 -148 -3 -14 -9 -35 -14 -46 -47 -112 -79 -931
-52 -1325 33 -466 46 -525 141 -620 47 -47 148 -95 254 -121 26 -6 47 -15 47
-20 0 -5 8 -9 18 -9 20 0 348 -105 374 -120 10 -6 25 -10 33 -10 8 0 23 -4 33
-10 9 -5 53 -21 97 -35 137 -44 195 -67 195 -78 0 -24 142 -473 165 -524 8
-17 15 -34 15 -38 0 -4 7 -23 16 -43 9 -21 20 -46 24 -57 4 -11 15 -36 23 -55
9 -19 25 -60 37 -90 29 -74 189 -399 245 -497 25 -43 45 -88 45 -100 0 -21
-26 -86 -43 -108 -15 -20 -277 -550 -277 -562 0 -6 -4 -13 -8 -15 -4 -1 -32
-52 -62 -113 -49 -100 -54 -117 -58 -192 -3 -61 0 -96 13 -135 9 -29 20 -55
24 -58 4 -3 17 -21 28 -40 12 -19 30 -44 40 -55 10 -11 35 -41 54 -67 41 -54
116 -143 175 -208 23 -25 64 -70 92 -101 142 -160 537 -532 716 -674 21 -16
54 -44 74 -62 21 -18 48 -38 62 -45 14 -7 27 -15 30 -18 3 -3 18 -12 34 -20
36 -18 201 -21 237 -3 13 6 220 109 460 227 239 119 441 216 448 216 8 0 79
-36 158 -80 80 -44 152 -80 159 -80 8 0 14 -3 14 -8 0 -4 15 -13 33 -21 17 -8
68 -31 112 -51 160 -75 327 -142 335 -133 4 4 10 49 13 98 2 50 7 97 11 105 5
12 -3 19 -31 29 -21 7 -67 27 -103 43 -36 17 -90 42 -120 55 -150 69 -376 186
-430 223 -51 36 -114 62 -146 62 -24 0 -177 -71 -517 -241 -266 -133 -494
-241 -506 -241 -30 0 -54 14 -131 74 -220 171 -616 541 -751 701 -19 22 -42
47 -51 55 -9 8 -35 38 -58 65 -23 28 -60 70 -81 95 -148 174 -179 220 -179
272 0 23 73 178 241 513 270 538 260 509 197 607 -18 29 -45 75 -61 103 -33
61 -218 435 -241 488 -9 20 -22 52 -30 70 -17 39 -76 199 -106 287 -12 36 -26
74 -30 85 -5 11 -18 52 -29 90 -46 155 -60 202 -71 245 -29 109 -56 134 -190
170 -25 7 -54 16 -65 20 -19 8 -261 88 -335 111 -37 11 -73 25 -102 40 -10 5
-27 9 -37 9 -11 0 -23 5 -26 10 -3 6 -17 10 -30 10 -13 0 -26 4 -29 9 -3 5
-18 11 -33 14 -62 11 -240 80 -261 101 -40 39 -59 188 -83 658 -20 376 21
1021 70 1096 18 30 82 58 236 107 66 20 129 41 140 46 11 4 112 38 225 75 113
36 213 70 222 75 10 5 27 9 37 9 11 0 23 5 26 10 3 6 17 10 30 10 13 0 27 5
30 10 3 6 14 10 24 10 30 0 100 39 117 65 14 22 26 58 64 200 8 31 24 81 67
215 27 84 117 328 139 378 15 34 37 84 61 142 9 19 56 116 106 215 49 99 95
190 101 202 6 13 14 23 19 23 4 0 7 5 7 11 0 6 17 36 37 66 66 99 72 80 -200
622 -243 485 -253 512 -225 564 22 43 230 292 343 412 11 12 58 63 104 114 95
104 337 332 502 472 215 183 247 205 303 200 28 -3 228 -99 234 -113 2 -5 9
-8 15 -8 7 0 174 -81 372 -180 238 -119 370 -180 391 -180 18 0 57 15 90 35
33 18 75 42 94 53 19 10 53 29 75 42 91 53 318 163 410 200 11 4 43 18 70 30
28 12 59 26 70 30 23 9 73 29 95 39 8 4 96 33 195 66 99 32 189 61 200 65 11
4 40 13 65 20 25 7 55 16 68 21 13 5 34 9 47 9 13 0 27 5 30 10 3 6 15 10 26
10 40 0 60 36 108 190 19 58 37 114 42 125 4 11 51 153 105 315 53 162 100
304 104 315 5 11 16 41 25 67 36 99 81 117 325 134 47 3 110 10 140 14 72 12
877 4 1000 -9 52 -6 138 -15 190 -20 52 -5 104 -12 115 -17 34 -13 62 -51 80
-106 9 -29 20 -61 26 -70 5 -10 9 -27 9 -37 0 -11 5 -23 10 -26 6 -3 10 -16
10 -29 0 -12 3 -25 6 -29 4 -3 64 -178 135 -388 127 -381 149 -429 190 -429
10 0 21 -4 24 -10 3 -5 16 -10 27 -10 23 0 81 -17 110 -31 10 -5 27 -9 38 -9
11 0 28 -4 38 -9 9 -5 98 -35 197 -67 99 -32 197 -66 217 -76 20 -10 42 -18
48 -18 5 0 18 -4 28 -9 9 -5 33 -16 52 -24 160 -68 311 -140 465 -222 56 -30
75 -41 173 -97 74 -42 87 -48 117 -48 19 0 202 87 510 241 535 268 520 263
601 203 196 -145 480 -403 715 -650 219 -230 459 -521 459 -556 0 -12 -74
-171 -165 -353 -91 -183 -165 -336 -165 -341 0 -5 -9 -20 -20 -34 -11 -14 -20
-32 -20 -42 0 -9 -4 -18 -8 -20 -16 -6 -112 -214 -112 -241 0 -28 24 -80 80
-172 17 -27 63 -115 103 -195 39 -80 74 -147 77 -150 11 -11 50 -101 50 -115
0 -8 5 -15 10 -15 6 0 10 -7 10 -15 0 -8 4 -23 9 -33 10 -19 49 -106 62 -137
4 -11 19 -51 32 -90 14 -38 38 -108 54 -155 17 -47 40 -119 53 -160 12 -41 26
-86 30 -100 7 -24 13 -42 45 -161 18 -65 42 -91 105 -114 25 -9 54 -21 65 -25
11 -5 38 -14 60 -21 22 -6 49 -15 60 -20 11 -5 72 -25 135 -44 146 -47 230
-74 255 -85 11 -4 94 -31 185 -60 91 -29 183 -63 205 -75 61 -35 82 -92 89
-245 2 -52 10 -162 18 -245 17 -191 17 -624 0 -825 -7 -85 -17 -202 -22 -260
-18 -217 -27 -231 -195 -280 -38 -12 -79 -25 -90 -29 -11 -5 -42 -16 -70 -24
-27 -9 -203 -67 -390 -130 -410 -138 -396 -129 -422 -275 -3 -18 -9 -35 -14
-38 -5 -3 -9 -13 -9 -22 0 -15 -33 -133 -50 -177 -4 -11 -20 -58 -35 -105 -14
-47 -36 -110 -47 -140 -11 -30 -24 -64 -28 -75 -4 -11 -12 -32 -19 -47 -6 -16
-15 -38 -20 -50 -60 -151 -202 -444 -275 -568 -27 -47 -63 -110 -78 -140 -47
-89 -68 -35 291 -745 151 -299 162 -323 158 -366 -3 -40 -35 -97 -77 -139 -3
-3 -25 -30 -50 -60 -24 -30 -78 -93 -120 -139 -41 -47 -88 -100 -105 -120 -62
-71 -374 -381 -475 -470 -146 -130 -146 -130 -235 -202 -157 -128 -173 -134
-259 -95 -31 14 -61 26 -65 26 -5 0 -11 3 -13 8 -4 10 -828 419 -859 426 -26
6 -96 -24 -194 -84 -27 -16 -66 -37 -85 -47 -19 -9 -37 -19 -40 -22 -5 -6
-156 -81 -260 -129 -36 -16 -95 -44 -132 -61 -37 -17 -74 -31 -82 -31 -8 0
-18 -4 -21 -10 -3 -5 -13 -10 -20 -10 -8 0 -38 -11 -67 -24 -44 -19 -282 -102
-325 -112 -28 -7 -9 -20 58 -42 40 -12 98 -40 130 -62 32 -22 67 -40 76 -40
18 0 136 44 220 81 24 11 45 19 48 19 26 0 496 228 625 303 25 15 52 27 60 27
17 0 838 -409 846 -421 3 -5 15 -9 28 -9 12 0 28 -6 35 -13 17 -17 206 -16
223 1 6 6 20 12 30 12 10 0 18 5 18 10 0 6 4 10 10 10 17 0 216 159 356 285
221 199 386 363 589 587 69 75 170 195 210 246 5 7 17 21 26 30 76 82 111 157
125 265 8 61 -40 194 -124 342 -6 11 -86 170 -177 354 l-165 334 21 41 c12 23
40 75 62 116 52 96 197 386 197 395 0 6 8 25 66 153 13 29 24 57 24 62 0 6 4
18 9 28 16 31 29 66 57 147 14 44 32 94 39 110 7 17 34 106 61 199 32 110 54
170 64 173 8 2 22 8 30 12 8 4 49 18 90 30 41 12 83 27 92 32 10 5 26 9 36 9
10 0 22 4 27 8 6 5 30 14 55 21 42 12 128 42 175 61 11 4 61 20 110 35 50 15
104 34 120 41 17 7 44 15 60 19 82 18 183 66 227 108 95 89 113 154 138 487 6
80 15 192 20 250 13 136 13 504 0 640 -5 58 -14 168 -20 245 -20 266 -22 278
-48 360 -33 104 -161 198 -332 245 -25 7 -67 21 -95 31 -27 10 -90 30 -140 44
-49 15 -99 31 -110 35 -11 5 -49 18 -85 30 -36 11 -73 25 -82 30 -10 6 -25 10
-33 10 -8 0 -23 4 -33 9 -9 4 -51 19 -92 32 -41 13 -87 29 -101 36 -28 14 -38
39 -95 243 -14 52 -30 104 -35 115 -5 11 -18 49 -29 85 -12 36 -25 75 -30 88
-16 35 -27 64 -45 112 -9 25 -22 59 -30 75 -7 17 -23 55 -35 85 -23 57 -122
269 -142 305 -6 11 -29 54 -51 95 -22 41 -55 103 -73 138 -19 34 -34 72 -34
84 0 16 191 412 258 533 25 47 62 130 62 141 0 7 3 14 8 16 12 5 110 209 121
253 23 86 1 208 -47 261 -9 11 -39 49 -67 84 -27 36 -52 67 -55 70 -3 3 -44
50 -90 105 -46 55 -105 123 -129 150 -66 73 -470 472 -531 525 -29 25 -67 58
-84 74 -17 15 -74 62 -126 105 -52 42 -103 83 -113 92 -10 9 -39 26 -65 39
-26 12 -55 26 -64 31 -23 12 -183 12 -206 0 -104 -54 -909 -451 -913 -451 -4
0 -49 24 -102 54 -183 104 -467 238 -647 307 -117 45 -147 57 -172 70 -10 5
-27 9 -38 9 -11 0 -20 5 -20 10 0 6 -7 10 -15 10 -8 0 -70 18 -137 39 -191 61
-225 71 -246 71 -20 0 -52 29 -52 47 0 15 -39 135 -50 155 -6 10 -10 25 -10
33 0 8 -4 23 -9 33 -5 9 -15 37 -22 62 -7 25 -15 50 -19 55 -4 6 -12 30 -19
55 -7 25 -17 54 -22 65 -5 11 -43 124 -85 250 -77 234 -97 275 -164 331 -58
50 -106 66 -240 81 -69 7 -147 18 -175 24 -63 13 -932 21 -1105 9z"/>
<path d="M8244 16102 c-12 -4 -63 -54 -114 -112 -51 -58 -115 -130 -144 -161
-28 -30 -76 -84 -106 -120 -71 -83 -100 -110 -111 -103 -5 3 -9 115 -9 250 l0
245 -77 -3 -78 -3 4 -390 c1 -214 5 -393 8 -397 2 -5 19 -8 38 -8 36 0 36 1
319 319 55 63 117 132 137 154 21 24 41 37 47 33 9 -5 12 -75 12 -241 0 -213
2 -235 18 -244 9 -5 28 -8 42 -6 14 1 41 3 60 4 l35 1 -2 242 c-2 134 -6 312
-9 396 -6 147 -7 152 -28 151 -11 -1 -31 -4 -42 -7z"/>
<path d="M8620 16092 c0 -5 24 -59 53 -118 139 -282 132 -264 111 -284 -17
-15 -205 -184 -259 -231 -11 -10 -45 -40 -75 -68 l-55 -50 28 -10 c16 -6 38
-11 49 -11 11 0 38 -5 59 -11 30 -10 40 -9 52 2 101 98 335 309 342 309 9 0 2
-62 -19 -155 -39 -173 -47 -218 -38 -227 8 -8 132 -32 137 -26 2 2 13 50 25
108 12 58 26 123 31 145 5 22 12 57 16 78 3 21 11 36 17 34 12 -4 44 -61 65
-117 8 -19 41 -99 74 -177 59 -142 60 -143 96 -148 20 -3 47 -8 61 -11 87 -18
86 -34 9 142 -39 88 -76 173 -84 189 -45 101 -65 159 -58 165 17 14 128 106
148 121 11 10 53 45 94 80 l74 63 -29 13 c-16 7 -38 12 -48 13 -11 0 -35 5
-53 12 -22 8 -36 9 -41 2 -4 -5 -36 -34 -72 -64 -36 -30 -67 -57 -70 -60 -21
-21 -129 -110 -134 -110 -9 0 -7 63 3 96 8 28 23 95 36 160 6 31 5 32 -42 43
-87 19 -97 18 -105 -9 -4 -14 -17 -70 -29 -125 -11 -55 -23 -106 -25 -112 -7
-25 -32 -1 -57 55 -109 245 -117 259 -156 270 -20 6 -49 13 -66 16 -16 2 -38
8 -47 11 -10 4 -18 3 -18 -3z"/>
<path d="M7075 16019 c-75 -7 -312 -53 -321 -61 -2 -3 1 -18 6 -34 5 -16 24
-108 41 -204 70 -381 105 -535 120 -531 8 1 39 7 69 12 30 6 75 14 100 18 25
5 72 14 105 20 33 7 76 15 95 18 54 9 126 49 153 85 41 56 48 76 48 148 0 60
-3 76 -28 112 -25 37 -61 69 -112 97 -11 7 -11 12 -1 31 17 31 15 128 -3 170
-17 38 -68 89 -107 107 -39 18 -78 21 -165 12z m122 -163 c13 -15 23 -37 23
-49 0 -37 -36 -84 -72 -95 -64 -20 -169 -35 -179 -25 -12 12 -39 156 -30 166
14 15 136 36 185 33 39 -3 55 -9 73 -30z m96 -278 c34 -18 46 -40 47 -85 0
-34 -5 -46 -31 -67 -17 -14 -43 -28 -57 -31 -73 -14 -131 -27 -170 -37 -23 -6
-45 -9 -47 -6 -8 8 -44 181 -40 188 5 8 66 26 130 38 73 13 143 14 168 0z"/>
<path d="M6375 15856 c-16 -6 -32 -13 -35 -16 -3 -3 -23 -11 -45 -19 -22 -7
-58 -22 -80 -31 -79 -35 -272 -110 -281 -110 -5 0 -15 -4 -23 -9 -11 -7 -9
-20 9 -72 12 -35 28 -77 35 -94 12 -26 33 -96 76 -255 6 -19 9 -80 7 -135 l-3
-100 -32 -10 c-18 -6 -35 -14 -39 -17 -6 -6 31 -112 71 -203 8 -17 18 -43 24
-58 10 -25 13 -26 38 -16 51 21 68 27 86 33 22 7 22 34 -3 96 -11 28 -20 55
-20 60 0 10 72 50 89 50 6 0 35 11 65 25 30 14 58 25 61 25 4 0 23 7 43 16 37
16 62 26 105 43 37 14 81 33 99 42 41 21 46 15 80 -85 19 -56 23 -56 131 -12
28 11 34 33 18 64 -5 9 -13 28 -18 42 -6 14 -15 37 -22 53 -6 15 -15 37 -20
50 -42 101 -35 96 -87 71 -19 -9 -40 -14 -46 -11 -7 2 -22 29 -32 58 -11 30
-32 82 -48 117 -15 34 -28 69 -28 77 0 7 -4 17 -10 20 -5 3 -10 13 -10 21 0 8
-9 33 -19 57 -11 23 -36 85 -57 137 -20 52 -39 98 -43 101 -3 3 -19 1 -36 -5z
m-16 -274 c37 -95 49 -124 78 -192 11 -25 26 -63 34 -85 7 -22 17 -44 21 -49
17 -20 7 -51 -19 -63 -15 -7 -30 -13 -35 -13 -4 0 -32 -11 -62 -25 -30 -14
-58 -25 -61 -25 -3 0 -27 -9 -52 -21 -63 -28 -73 -22 -73 48 0 57 -19 181 -40
258 -6 22 -14 50 -17 63 -3 12 -9 25 -14 28 -5 3 -9 15 -9 28 0 12 -5 27 -10
32 -8 8 -7 14 3 22 16 14 186 81 207 81 10 1 27 -29 49 -87z"/>
<path d="M9833 15748 c-6 -13 -20 -43 -31 -68 -11 -25 -30 -67 -42 -95 -12
-27 -26 -59 -30 -70 -5 -11 -23 -51 -39 -88 -17 -38 -31 -70 -31 -72 0 -3 -29
-68 -65 -146 -67 -146 -72 -159 -55 -159 9 0 61 -22 185 -80 104 -48 175 -80
180 -80 3 0 28 -11 57 -25 28 -14 57 -25 62 -25 11 0 56 95 56 116 0 11 -69
44 -225 110 -49 21 -98 45 -108 54 -18 16 -17 19 6 71 14 30 32 71 40 92 16
37 33 45 65 28 9 -5 49 -23 87 -41 39 -17 87 -40 108 -50 l37 -19 29 62 c21
45 25 65 17 73 -6 6 -45 25 -86 43 -152 66 -170 75 -170 87 0 14 49 124 56
124 2 0 12 -4 22 -9 16 -9 55 -27 187 -86 138 -62 143 -64 153 -52 5 7 19 34
31 62 21 47 21 50 5 62 -10 7 -22 13 -26 13 -5 0 -46 18 -93 40 -47 22 -87 40
-90 40 -6 0 -204 87 -227 100 -29 16 -54 11 -65 -12z"/>
<path d="M10529 15372 c-20 -31 -115 -177 -212 -323 -98 -146 -177 -268 -177
-271 0 -8 106 -78 119 -78 5 0 52 63 103 140 51 77 99 140 107 140 15 0 301
-188 301 -198 0 -3 -43 -70 -95 -149 -53 -79 -93 -149 -90 -154 4 -5 31 -25
61 -44 48 -31 57 -34 70 -21 7 8 14 18 14 22 0 4 12 23 28 43 15 19 29 40 32
46 3 5 83 126 178 268 95 142 170 262 167 267 -4 6 -20 17 -38 26 -17 9 -37
23 -45 30 -15 16 -52 19 -52 5 0 -5 -11 -22 -24 -38 -13 -15 -32 -42 -42 -59
-37 -60 -74 -114 -80 -114 -7 0 -48 22 -54 29 -3 3 -58 41 -122 83 -64 43
-120 82 -123 88 -4 6 24 57 62 112 37 56 71 107 76 114 5 9 -12 26 -52 53 -33
23 -64 41 -68 41 -4 -1 -24 -27 -44 -58z"/>
<path d="M5105 15189 c-82 -61 -183 -133 -222 -161 l-73 -50 22 -32 c13 -17
26 -35 31 -41 4 -5 30 -41 57 -80 28 -38 81 -112 118 -163 37 -52 85 -119 107
-150 61 -86 127 -172 132 -172 4 0 86 55 108 72 52 42 130 98 135 98 3 0 15 8
26 18 10 10 42 33 69 52 28 19 55 38 60 42 6 5 18 14 28 21 16 11 15 16 -18
65 -20 28 -41 52 -48 52 -8 0 -45 -23 -83 -50 -38 -28 -84 -60 -101 -71 -18
-12 -33 -25 -33 -30 0 -5 -5 -9 -11 -9 -6 0 -24 -11 -41 -25 -16 -14 -35 -25
-43 -25 -11 0 -51 48 -113 136 l-22 32 58 43 c31 24 59 47 60 52 2 4 8 7 13 7
12 0 109 72 109 81 0 4 -6 14 -13 21 -7 7 -23 28 -36 46 -27 39 -40 40 -79 7
-17 -14 -34 -25 -40 -25 -6 0 -12 -3 -14 -8 -4 -11 -128 -102 -139 -102 -4 0
-16 11 -26 25 -10 14 -26 35 -35 47 -10 11 -18 26 -18 33 0 11 68 65 220 173
41 30 79 57 83 62 6 5 -71 124 -77 119 -1 0 -68 -50 -151 -110z"/>
<path d="M7730 14949 c-241 -15 -545 -69 -787 -140 -18 -5 -48 -13 -65 -18
-117 -34 -258 -82 -329 -113 -19 -9 -52 -23 -74 -33 -22 -10 -56 -24 -75 -33
-113 -49 -343 -169 -391 -203 -15 -10 -35 -22 -45 -27 -44 -17 -273 -177 -408
-282 -130 -102 -410 -371 -515 -495 -32 -38 -67 -80 -77 -92 -37 -43 -51 -60
-137 -174 -48 -64 -87 -121 -87 -127 0 -6 -3 -12 -8 -14 -10 -4 -172 -252
-172 -263 0 -3 -10 -22 -23 -43 -83 -132 -225 -424 -279 -572 -10 -30 -23 -64
-28 -75 -5 -11 -14 -38 -21 -60 -6 -22 -15 -49 -19 -60 -101 -263 -173 -710
-169 -1048 1 -151 18 -380 34 -484 3 -21 11 -67 16 -103 10 -60 33 -182 60
-320 6 -30 15 -65 20 -78 5 -13 9 -34 9 -47 0 -13 5 -27 10 -30 6 -3 10 -15
10 -27 0 -11 9 -48 20 -82 71 -221 113 -347 130 -383 11 -24 20 -45 20 -48 0
-4 27 -67 77 -175 161 -350 375 -677 652 -995 80 -92 354 -358 466 -451 236
-199 354 -342 411 -499 27 -75 29 -88 27 -225 -1 -123 2 -147 16 -161 21 -19
156 -101 199 -120 17 -8 32 -17 32 -21 0 -5 7 -8 15 -8 8 0 23 -4 33 -9 9 -5
35 -14 57 -20 82 -21 129 -21 210 0 44 11 91 23 105 26 14 2 34 8 45 13 11 5
49 16 85 25 36 9 79 20 95 25 66 19 112 32 145 40 55 14 136 35 260 70 63 17
132 34 153 37 20 3 40 9 43 14 3 5 18 9 34 9 16 0 31 4 34 9 3 5 20 11 38 14
33 6 79 17 153 36 22 6 58 15 80 21 22 5 76 18 120 29 44 11 99 25 122 30 173
44 279 154 299 311 5 36 7 313 4 615 l-5 550 -265 0 -265 0 -64 28 c-36 15
-66 27 -67 27 -2 0 -4 -172 -6 -382 -3 -429 -6 -448 -75 -519 -62 -65 -197
-116 -558 -211 -205 -54 -244 -65 -316 -89 -108 -36 -161 -16 -205 76 -56 119
-244 397 -314 465 -3 3 -18 21 -34 40 -27 33 -214 235 -308 331 -102 105 -260
279 -304 334 -27 33 -57 69 -68 80 -67 71 -294 402 -384 560 -48 85 -182 357
-182 369 0 4 -9 25 -19 49 -39 86 -105 288 -132 407 -4 19 -13 55 -19 80 -92
361 -87 959 10 1330 5 19 18 71 29 115 19 81 83 285 107 340 7 17 22 55 34 85
12 30 32 78 46 108 13 29 24 55 24 58 0 14 152 307 197 379 27 44 65 105 83
135 44 71 146 213 218 304 118 148 288 312 502 486 56 45 277 190 290 190 6 0
10 3 10 8 0 4 10 12 23 18 12 6 76 39 142 72 66 34 123 62 127 62 5 0 31 11
60 25 28 14 60 25 70 25 10 0 18 3 18 8 0 4 35 18 78 31 42 13 81 28 87 33 5
4 21 8 36 8 15 0 30 4 33 9 3 5 18 11 33 14 16 3 46 10 68 16 136 38 237 56
530 97 153 22 718 25 835 5 41 -7 100 -16 130 -21 116 -19 226 -40 260 -50
122 -33 187 -53 202 -61 10 -5 27 -9 37 -9 11 0 23 -4 26 -10 3 -5 15 -10 26
-10 10 0 27 -4 37 -9 16 -8 43 -19 95 -40 12 -5 50 -21 83 -35 34 -14 64 -26
67 -26 4 0 29 -13 57 -30 28 -16 57 -30 65 -30 7 0 15 -3 17 -7 2 -5 26 -19
53 -33 28 -13 83 -46 123 -72 41 -26 75 -48 77 -48 8 0 181 -124 260 -185 194
-152 420 -379 561 -565 27 -36 52 -66 57 -68 4 -2 7 -10 7 -17 0 -7 4 -15 8
-17 16 -6 154 -219 221 -343 133 -241 257 -548 305 -755 10 -41 22 -90 28
-108 22 -73 59 -312 79 -512 17 -167 2 -525 -30 -715 -6 -33 -15 -87 -20 -120
-21 -122 -98 -406 -121 -447 -6 -10 -10 -24 -10 -32 0 -14 -27 -87 -61 -163
-11 -24 -19 -45 -19 -48 0 -12 -145 -294 -187 -364 -82 -135 -182 -283 -244
-362 -18 -24 -39 -51 -46 -59 -87 -113 -248 -293 -406 -452 -218 -221 -321
-332 -397 -428 -28 -36 -57 -72 -64 -81 -82 -101 -263 -421 -306 -539 -7 -19
-18 -48 -25 -65 -7 -16 -25 -75 -39 -130 -15 -55 -32 -116 -38 -135 -46 -149
-141 -236 -306 -281 -234 -63 -294 -78 -340 -86 -18 -3 -35 -9 -38 -14 -3 -5
-18 -9 -34 -9 -16 0 -32 -4 -35 -10 -3 -5 -16 -10 -27 -10 -12 0 -35 -4 -52
-9 -17 -5 -51 -15 -76 -22 -25 -6 -58 -15 -75 -20 -16 -4 -93 -24 -170 -44
-77 -20 -150 -41 -163 -46 -13 -5 -34 -9 -47 -9 -13 0 -27 -4 -30 -10 -3 -5
-17 -10 -30 -10 -13 0 -34 -4 -47 -9 -21 -8 -53 -17 -153 -43 -22 -6 -49 -14
-60 -18 -11 -5 -31 -11 -45 -14 -14 -2 -43 -10 -65 -16 -22 -6 -56 -15 -75
-20 -19 -4 -69 -17 -110 -28 -140 -39 -195 -54 -270 -73 -72 -19 -92 -25 -177
-50 -21 -6 -51 -13 -68 -16 -16 -3 -34 -9 -40 -13 -5 -4 -32 -13 -60 -20 -27
-7 -75 -20 -105 -30 -30 -9 -75 -23 -100 -30 -126 -36 -234 -119 -279 -215
-29 -61 -29 -175 0 -242 28 -67 92 -129 159 -154 71 -27 242 -35 303 -14 23 7
94 27 157 44 135 35 245 65 350 93 41 11 90 22 108 25 18 3 35 9 38 14 3 5 20
9 39 9 19 0 37 5 40 10 3 6 19 10 35 10 16 0 31 4 34 9 3 5 20 11 38 14 18 3
49 10 68 15 19 6 89 25 155 42 259 68 311 82 340 90 17 5 77 20 135 35 58 14
114 30 125 35 11 5 31 11 45 13 14 3 66 16 115 30 215 59 252 69 290 77 39 9
331 83 390 100 17 4 57 16 90 25 240 65 480 173 556 248 66 66 92 134 101 261
4 61 12 140 18 176 5 36 13 84 16 108 4 23 11 45 15 48 5 3 9 16 9 30 0 13 4
32 9 42 6 9 17 42 27 72 22 73 91 218 151 316 118 194 243 336 519 590 191
176 324 318 437 467 21 28 49 64 63 81 36 46 33 41 125 181 110 167 143 225
239 415 52 102 97 201 131 288 5 12 13 32 18 45 13 30 96 282 111 337 7 25 16
56 20 70 5 14 13 48 20 75 6 28 15 66 20 85 14 53 19 85 40 220 45 294 53 390
53 665 0 234 -4 297 -27 470 -14 110 -30 223 -35 250 -14 72 -48 223 -61 270
-6 22 -14 51 -16 65 -3 14 -9 34 -14 45 -4 11 -13 40 -20 65 -12 45 -74 227
-90 265 -4 11 -15 36 -23 55 -9 19 -23 55 -33 80 -26 67 -195 397 -236 460
-19 30 -57 89 -83 130 -42 65 -98 144 -188 264 -73 97 -201 240 -332 371 -166
165 -179 178 -310 286 -95 77 -97 79 -210 159 -38 27 -74 53 -80 57 -10 9
-159 101 -240 149 -58 35 -342 177 -395 198 -25 10 -58 24 -75 31 -85 38 -335
122 -465 157 -41 11 -91 24 -110 29 -19 5 -60 14 -90 20 -30 6 -77 15 -105 20
-309 60 -680 81 -1035 58z"/>
<path d="M11076 14606 c-147 -151 -268 -277 -268 -281 -1 -4 11 -20 26 -36 24
-26 32 -28 79 -24 29 3 151 9 272 15 121 5 250 13 288 16 47 5 67 3 67 -5 0
-12 -45 -60 -233 -249 l-112 -112 56 -56 56 -56 36 39 c21 21 145 148 277 283
l240 244 -27 28 -28 27 -220 -10 c-121 -6 -275 -13 -342 -16 -78 -3 -123 -2
-123 4 0 10 62 77 249 266 l96 98 -55 49 c-30 27 -57 50 -60 50 -3 -1 -126
-124 -274 -274z"/>
<path d="M4555 14663 c-22 -2 -44 -9 -49 -14 -6 -5 -17 -9 -26 -9 -24 0 -133
-83 -172 -132 -57 -69 -81 -132 -86 -224 -9 -170 73 -305 236 -388 15 -7 57
-19 94 -26 119 -24 245 20 345 118 86 85 123 170 123 283 0 106 -31 187 -101
263 -51 55 -79 74 -169 116 -22 10 -146 18 -195 13z m121 -156 c64 -17 127
-67 164 -133 54 -93 38 -206 -38 -282 -105 -105 -247 -103 -356 5 -108 106
-103 262 10 362 64 56 131 71 220 48z"/>
<path d="M11950 14105 c-41 -30 -79 -58 -85 -62 -5 -5 -32 -24 -60 -43 -27
-18 -52 -36 -55 -40 -3 -3 -63 -46 -134 -96 -70 -49 -152 -106 -182 -127 l-54
-38 52 -72 c29 -39 101 -141 160 -224 60 -84 111 -153 114 -153 9 0 104 74
104 82 0 8 -50 81 -134 196 -27 37 -58 81 -68 98 l-19 32 33 20 c19 12 46 32
61 44 15 13 40 32 56 41 29 17 29 17 53 -12 12 -16 43 -59 68 -96 25 -37 55
-79 67 -93 20 -26 22 -26 40 -9 11 9 23 17 26 17 11 0 57 43 57 53 0 6 -19 35
-42 66 -64 84 -118 165 -118 176 0 14 100 77 113 72 7 -3 59 -73 117 -155 58
-83 109 -151 114 -151 12 -1 106 71 106 81 0 4 -35 56 -78 115 -42 59 -84 118
-92 129 -65 95 -142 204 -144 204 0 0 -35 -25 -76 -55z"/>
<path d="M3900 14061 c0 -5 -6 -16 -13 -23 -23 -24 -58 -88 -53 -96 3 -5 53
-40 110 -78 58 -38 106 -75 106 -83 0 -12 -73 -135 -90 -151 -11 -11 -50 -70
-50 -76 0 -4 -11 -22 -25 -40 -31 -40 -30 -40 -155 43 -52 35 -100 63 -106 63
-17 0 -88 -106 -81 -122 2 -7 17 -20 33 -28 16 -8 35 -21 42 -28 8 -7 28 -20
45 -29 18 -8 57 -33 87 -53 30 -21 129 -86 220 -145 91 -59 177 -115 192 -126
15 -10 29 -19 31 -19 11 0 78 113 74 124 -6 15 -117 93 -229 160 -30 17 -48
35 -48 47 0 10 20 49 45 86 25 38 49 75 55 83 55 83 89 125 101 124 9 -1 64
-33 123 -73 59 -39 109 -71 112 -71 3 0 18 -9 32 -20 24 -20 26 -20 36 -3 5
10 12 20 15 23 4 3 19 24 34 47 l27 43 -117 77 c-65 43 -130 85 -145 92 -15 8
-36 21 -45 30 -10 9 -58 42 -108 73 -49 32 -95 62 -101 67 -6 5 -25 16 -41 25
-17 8 -37 21 -45 28 -15 14 -55 38 -63 38 -3 0 -5 -4 -5 -9z"/>
<path d="M7885 13771 c-11 -5 -40 -15 -65 -22 -25 -7 -49 -16 -54 -21 -6 -4
-18 -8 -28 -8 -10 0 -18 -4 -18 -10 0 -5 -6 -10 -13 -10 -24 0 -147 -110 -193
-172 -61 -84 -89 -147 -114 -266 l-22 -101 22 -106 c11 -59 25 -114 29 -123 5
-9 15 -30 22 -47 8 -16 16 -32 19 -35 3 -3 17 -23 31 -45 106 -164 299 -265
506 -265 191 0 347 70 466 209 60 71 91 123 123 208 23 59 26 85 27 193 1 144
-16 213 -80 322 -41 70 -151 185 -204 213 -87 45 -112 56 -166 72 -64 19 -255
28 -288 14z"/>
<path d="M3348 13177 c-16 -41 -28 -80 -28 -87 0 -7 20 -43 45 -81 25 -38 45
-71 45 -73 0 -3 23 -40 51 -82 71 -105 65 -108 -96 -44 -63 25 -107 40 -120
40 -8 0 -21 -17 -30 -37 -9 -21 -21 -46 -26 -55 -16 -31 -10 -44 29 -57 20 -7
47 -17 60 -22 12 -5 32 -13 45 -18 85 -33 127 -53 127 -60 0 -8 -74 -31 -99
-31 -11 0 -23 -4 -26 -10 -3 -5 -19 -10 -36 -10 -16 0 -29 -4 -29 -10 0 -5
-11 -10 -25 -10 -14 0 -33 -4 -43 -9 -9 -5 -35 -14 -57 -20 -38 -10 -42 -14
-71 -88 -17 -43 -27 -79 -23 -81 4 -2 67 16 140 39 74 22 143 44 154 47 11 2
25 9 30 13 12 9 82 16 89 9 2 -3 69 -103 149 -223 102 -155 147 -215 153 -205
14 21 46 110 51 142 3 15 1 31 -4 35 -11 8 -242 347 -250 368 -5 12 0 14 25 8
17 -3 48 -14 69 -24 21 -10 59 -24 86 -32 26 -7 47 -17 47 -21 0 -4 9 -8 20
-8 11 0 28 -4 38 -9 78 -40 87 -39 97 12 4 17 11 37 15 42 4 6 10 22 14 38 5
20 3 27 -9 27 -8 0 -23 4 -33 10 -21 12 -191 76 -255 96 -61 19 -62 46 -2 55
22 4 94 21 160 39 66 18 149 40 185 49 l65 16 23 57 c12 32 25 73 29 90 5 28
4 31 -8 22 -8 -6 -27 -14 -44 -17 -42 -7 -226 -56 -250 -66 -11 -5 -64 -19
-117 -32 -109 -26 -108 -26 -146 41 -24 43 -151 249 -172 279 -14 21 -16 18
-42 -52z"/>
<path d="M9210 13154 c-8 -3 -44 -14 -80 -26 -66 -21 -144 -72 -194 -129 -16
-17 -45 -66 -65 -108 -33 -72 -36 -82 -35 -176 0 -107 13 -161 60 -240 35 -61
122 -139 195 -176 62 -31 68 -33 189 -33 99 0 131 4 155 17 17 9 35 17 41 17
17 0 124 85 155 123 126 153 130 393 10 552 -44 58 -126 126 -176 145 -81 32
-208 49 -255 34z"/>
<path d="M12149 12974 c-71 -107 -72 -108 -59 -143 25 -68 40 -101 48 -101 4
0 38 48 76 106 l69 106 36 -7 c20 -4 56 -11 81 -16 25 -5 64 -12 88 -15 50 -8
52 -1 22 72 -24 58 -40 66 -155 83 -44 7 -92 14 -107 17 -25 5 -32 -3 -99
-102z"/>
<path d="M6616 12913 c-59 -18 -139 -68 -183 -114 -17 -19 -46 -63 -64 -99
-27 -53 -34 -80 -37 -146 -7 -134 33 -236 126 -322 171 -158 417 -148 577 24
82 88 125 221 105 325 -11 54 -14 61 -44 130 -36 83 -151 177 -252 207 -56 16
-168 14 -228 -5z"/>
<path d="M12259 12733 c-40 -59 -72 -113 -72 -118 0 -17 47 -135 54 -135 8 0
99 139 99 151 0 5 4 9 8 9 5 0 14 11 20 25 10 21 19 25 51 25 22 0 42 -4 45
-9 3 -4 27 -11 53 -15 27 -3 65 -9 87 -12 36 -6 38 -5 31 17 -12 43 -44 107
-57 115 -7 5 -33 12 -58 16 -122 20 -156 27 -172 33 -13 5 -32 -16 -89 -102z"/>
<path d="M12845 12540 c-3 -5 -22 -10 -41 -10 -32 0 -34 -2 -34 -35 0 -19 4
-43 9 -53 9 -17 41 -150 41 -171 0 -12 -7 -14 -265 -76 -195 -47 -225 -54
-308 -77 -48 -13 -48 -13 -42 -48 3 -19 11 -52 17 -73 11 -37 13 -38 45 -33
18 3 49 9 68 12 19 3 38 10 41 15 3 5 18 9 35 9 16 0 37 4 47 9 9 5 102 30
207 55 131 31 191 42 196 35 4 -6 14 -41 23 -78 35 -138 43 -156 62 -155 24 0
107 15 115 20 6 4 -10 75 -60 259 -6 22 -27 108 -47 190 -48 201 -53 215 -80
215 -13 0 -26 -4 -29 -10z"/>
<path d="M7882 12219 c-77 -30 -143 -101 -171 -184 -21 -64 -21 -78 -21 -710
l0 -645 350 0 350 0 0 663 0 663 -26 55 c-33 69 -110 142 -171 163 -70 24
-242 21 -311 -5z"/>
<path d="M2976 11994 c-4 -33 -10 -79 -15 -104 -6 -25 -15 -83 -21 -130 -6
-47 -15 -101 -20 -120 -16 -62 -19 -119 -6 -128 6 -5 36 -12 66 -15 54 -6 139
-19 250 -38 30 -5 84 -13 120 -18 57 -9 162 -25 298 -47 l42 -7 0 34 c0 19 7
72 16 119 8 47 20 117 25 155 18 121 28 179 34 211 l7 32 -64 8 c-34 5 -67 8
-73 9 -5 0 -13 -22 -16 -50 -12 -106 -42 -291 -50 -313 -10 -26 -13 -26 -159
-5 l-55 8 3 50 c1 28 9 92 18 142 8 51 13 96 10 101 -9 15 -116 36 -126 26
-10 -10 -23 -92 -37 -217 -3 -32 -11 -61 -16 -64 -16 -10 -87 -4 -119 8 -28
12 -35 23 -19 33 5 3 11 32 14 63 2 32 12 109 22 171 12 83 14 117 6 125 -6 6
-37 13 -70 15 l-59 4 -6 -58z"/>
<path d="M9160 11911 c-8 -4 -37 -18 -63 -31 -56 -27 -106 -82 -138 -148 -21
-46 -21 -53 -20 -537 1 -269 1 -496 1 -502 0 -10 75 -13 340 -13 l340 0 0 505
0 504 -25 54 c-33 74 -129 157 -180 157 -8 0 -15 5 -15 10 0 12 -217 13 -240
1z"/>
<path d="M6573 11834 c-62 -29 -125 -91 -156 -154 -22 -44 -22 -51 -25 -522
l-3 -478 380 0 380 0 1 440 c0 286 -4 456 -11 487 -23 103 -86 182 -181 228
-48 23 -62 25 -192 24 -128 0 -146 -2 -193 -25z"/>
<path d="M12955 11649 c-125 -7 -390 -24 -555 -35 -52 -3 -96 -8 -98 -9 -2 -2
0 -22 5 -46 8 -41 18 -51 253 -241 135 -109 248 -198 251 -198 4 0 9 -9 12
-19 6 -23 2 -24 -295 -42 l-198 -12 6 -66 c7 -72 19 -95 43 -86 15 6 35 7 276
21 66 3 138 8 160 9 22 1 99 6 170 10 72 4 133 9 138 12 4 2 7 21 7 42 0 32
-6 43 -32 64 -18 13 -43 33 -55 43 -12 11 -115 93 -227 184 -123 99 -205 171
-203 180 2 12 27 16 127 21 69 4 177 10 241 14 l116 8 -5 71 c-2 39 -7 73 -11
76 -3 3 -60 2 -126 -1z"/>
<path d="M3558 11313 c-30 -5 -31 -7 -28 -64 l1 -36 -113 -6 c-62 -4 -209 -10
-326 -14 l-214 -6 7 -271 c4 -149 8 -272 9 -272 0 -1 75 -5 166 -8 188 -7 270
-16 355 -40 114 -32 141 -52 130 -99 -10 -43 1 -46 158 -40 l147 6 0 74 0 73
-74 0 c-47 0 -77 5 -84 13 -10 12 -24 501 -15 525 3 7 25 12 56 13 105 2 114
12 102 105 l-6 54 -122 -1 c-67 -1 -134 -4 -149 -6z m-30 -275 c14 -14 17
-304 3 -312 -4 -3 -23 -1 -42 5 -110 34 -239 55 -362 58 -45 1 -86 6 -91 11
-11 11 -21 180 -12 214 l6 26 193 3 c105 1 215 3 243 5 28 1 55 -3 62 -10z"/>
<path d="M12995 10720 c-4 -6 -11 -50 -16 -98 -12 -118 -22 -158 -40 -153 -8
2 -50 7 -94 12 -129 13 -264 28 -350 39 -44 6 -104 14 -132 17 l-53 5 0 -45
c0 -24 -3 -58 -6 -74 -7 -37 -2 -39 141 -54 55 -6 136 -15 180 -20 44 -5 116
-13 160 -18 44 -5 97 -12 119 -17 l39 -7 -8 -61 c-3 -34 -10 -90 -14 -126 -9
-75 -5 -80 56 -80 23 0 48 -3 56 -6 17 -6 28 49 47 226 6 58 13 121 16 140 6
35 17 133 30 245 l6 60 -54 13 c-65 15 -75 15 -83 2z"/>
<path d="M3303 10360 c-29 -6 -76 -24 -105 -42 -84 -50 -130 -108 -181 -224
-5 -12 -7 -70 -5 -130 3 -98 6 -116 34 -175 51 -108 135 -176 264 -215 25 -8
62 -14 83 -14 60 0 176 39 237 80 59 39 134 135 145 185 14 61 17 210 4 250
-18 61 -33 95 -41 95 -5 0 -8 7 -8 16 0 25 -101 118 -161 147 -65 31 -177 43
-266 27z m207 -168 c67 -30 110 -84 132 -161 19 -68 15 -101 -18 -178 -20 -45
-86 -98 -141 -114 -156 -43 -280 16 -327 155 -20 62 -20 90 1 151 22 67 84
127 159 153 70 26 130 24 194 -6z"/>
<path d="M5289 10361 c-26 -4 -54 -13 -64 -21 -23 -19 -45 -64 -45 -92 0 -54
-17 -53 802 -56 l757 -2 -6 -33 c-3 -17 -10 -36 -14 -41 -5 -6 -9 -18 -9 -28
0 -10 -4 -26 -10 -36 -5 -9 -52 -145 -104 -302 -114 -342 -109 -327 -142 -420
-14 -41 -35 -104 -46 -140 -11 -36 -29 -87 -40 -113 -18 -45 -18 -50 -4 -66
33 -37 82 -41 477 -41 492 0 493 1 542 128 14 37 35 99 47 137 11 39 25 79 30
90 5 11 18 49 30 85 11 36 25 73 30 82 6 10 10 25 10 33 0 8 4 23 9 33 5 9 18
49 29 87 23 79 89 280 103 310 4 11 24 67 43 125 l34 105 608 5 608 5 26 82
c15 46 25 85 22 88 -8 7 -3669 3 -3723 -4z"/>
<path d="M9277 10339 c-20 -47 -46 -133 -41 -139 3 -2 62 -7 132 -11 102 -6
138 -12 176 -29 89 -42 92 -70 30 -226 -46 -115 -65 -135 -159 -169 -69 -25
-126 -29 -505 -36 -228 -4 -444 -12 -480 -17 -183 -30 -324 -83 -400 -152 -38
-34 -90 -128 -90 -162 0 -9 -4 -20 -10 -23 -5 -3 -10 -14 -10 -24 0 -18 -32
-107 -51 -143 -5 -10 -9 -25 -9 -33 0 -8 -4 -23 -9 -33 -13 -25 -31 -86 -31
-104 0 -8 12 -27 26 -42 l27 -26 1167 0 c1024 0 1171 2 1197 15 39 19 47 30
63 79 12 37 11 41 -10 58 -21 17 -60 18 -721 18 -580 0 -701 2 -705 14 -3 7 6
42 20 77 13 35 36 97 51 136 31 85 76 130 164 165 54 21 74 22 481 29 371 5
438 9 530 27 179 35 296 83 367 153 41 39 50 56 74 139 7 25 20 63 29 85 55
130 62 157 57 198 -11 81 -108 142 -292 183 -55 12 -172 16 -561 21 l-492 6
-15 -34z"/>
<path d="M12282 10170 c-6 -11 -12 -29 -12 -41 0 -11 -5 -29 -11 -40 -16 -30
-4 -51 51 -88 28 -18 50 -38 50 -43 0 -5 -11 -50 -25 -101 -71 -262 -59 -240
-140 -252 l-68 -10 -22 -70 -22 -70 50 -3 c27 -2 63 2 80 7 16 6 52 11 78 11
27 0 81 4 121 10 40 5 165 19 278 31 113 11 215 25 228 30 13 5 22 17 22 29 0
12 4 29 9 38 4 9 11 31 14 49 6 31 3 34 -151 150 -86 65 -164 124 -172 131
-38 31 -336 252 -340 252 -3 0 -11 -9 -18 -20z m331 -388 c51 -37 108 -79 127
-94 l34 -26 -35 -6 c-39 -7 -94 -12 -226 -22 -83 -6 -93 -5 -93 10 0 9 4 24 9
34 5 9 14 40 20 67 29 123 30 126 51 115 11 -6 62 -41 113 -78z"/>
<path d="M3846 9549 c-27 -11 -69 -29 -95 -40 -25 -12 -62 -28 -81 -36 -19 -9
-53 -24 -75 -34 -22 -10 -98 -43 -170 -73 -71 -31 -138 -61 -147 -66 -10 -6
-25 -10 -33 -10 -8 0 -15 -4 -15 -10 0 -5 -9 -10 -20 -10 -26 0 -25 -20 5 -86
14 -30 25 -57 25 -60 0 -3 14 -35 31 -72 17 -37 35 -76 39 -87 5 -11 20 -47
35 -79 15 -32 35 -78 46 -102 21 -50 27 -52 78 -25 20 10 65 31 101 46 36 16
90 39 120 53 65 29 117 51 145 62 11 4 33 13 48 19 45 18 87 13 122 -14 18
-13 35 -35 39 -48 7 -29 30 -37 105 -37 l54 0 -7 49 c-11 86 -49 138 -131 181
-49 26 -68 30 -134 30 -42 0 -81 -4 -86 -8 -6 -4 -28 -14 -50 -21 -22 -8 -71
-28 -110 -46 -177 -82 -194 -88 -210 -75 -8 7 -15 17 -15 22 0 6 -18 48 -40
95 -22 47 -40 91 -40 97 0 6 22 21 48 33 105 49 178 81 200 88 13 4 50 20 82
36 33 16 62 29 65 29 3 0 36 14 73 31 37 17 78 36 92 42 14 6 27 12 28 13 2 2
-3 15 -11 31 -8 15 -23 45 -32 66 -9 20 -19 37 -23 36 -4 0 -29 -9 -56 -20z"/>
<path d="M12010 9335 c-18 -36 -31 -67 -29 -69 2 -2 63 -32 134 -65 173 -82
181 -87 177 -108 -7 -35 -143 -304 -157 -309 -8 -3 -29 2 -47 11 -18 10 -64
33 -103 51 -38 19 -87 43 -107 54 -20 11 -44 20 -52 20 -13 0 -76 -104 -76
-125 0 -3 44 -26 98 -52 53 -26 99 -51 100 -55 2 -4 9 -8 15 -8 11 0 82 -34
342 -161 77 -38 143 -69 147 -69 7 0 68 115 68 129 0 5 -35 26 -77 46 -148 70
-163 79 -163 92 0 7 32 78 70 157 39 80 70 149 70 155 0 19 22 12 136 -44 62
-30 119 -55 127 -55 16 0 71 116 61 131 -5 8 -95 54 -177 89 -12 6 -29 14 -37
19 -29 19 -469 231 -478 231 -5 0 -24 -29 -42 -65z"/>
<path d="M4025 8715 c-71 -15 -167 -69 -213 -119 -17 -19 -47 -64 -64 -98 -31
-60 -33 -69 -32 -168 0 -98 3 -110 33 -172 62 -127 169 -210 306 -237 50 -10
71 -10 128 4 221 52 352 235 319 447 -9 60 -36 134 -52 148 -3 3 -16 21 -27
40 -41 67 -140 132 -233 154 -77 18 -86 18 -165 1z m206 -173 c64 -41 105 -93
124 -158 20 -68 9 -123 -36 -189 -55 -81 -124 -118 -224 -118 -100 -1 -151 30
-210 123 -36 58 -40 154 -8 215 71 135 243 197 354 127z"/>
<path d="M11887 8428 c-20 -29 -59 -84 -87 -123 -28 -38 -66 -92 -84 -120
l-34 -50 26 -22 c15 -12 31 -22 35 -23 5 0 15 -7 23 -15 28 -27 23 -33 184
197 l89 128 -54 40 c-30 22 -56 40 -58 40 -2 0 -20 -24 -40 -52z"/>
<path d="M11249 8098 c-119 -127 -122 -131 -207 -220 l-62 -67 51 -48 51 -48
138 145 c121 128 139 143 154 131 9 -7 16 -22 16 -32 0 -10 4 -20 9 -23 5 -4
6 -18 1 -34 -5 -15 -14 -47 -21 -72 -7 -25 -20 -63 -30 -85 -37 -88 -41 -107
-37 -168 3 -53 9 -70 36 -105 61 -77 163 -107 264 -78 71 21 127 61 170 123
32 47 33 51 33 148 0 87 -3 105 -24 138 -12 20 -27 37 -31 37 -12 0 -100 -102
-100 -116 0 -7 5 -16 10 -19 6 -3 10 -26 10 -50 0 -36 -6 -50 -33 -79 -37 -39
-72 -51 -122 -42 -52 10 -78 50 -72 108 3 26 13 61 23 79 66 128 82 254 42
328 -22 42 -138 161 -156 161 -5 0 -56 -50 -113 -112z"/>
<path d="M4636 8048 c-38 -40 -101 -107 -141 -148 -222 -232 -315 -333 -315
-341 0 -5 10 -19 22 -31 20 -20 31 -22 102 -19 44 1 84 5 88 7 11 7 223 27
298 28 l65 1 -1 -40 c0 -22 -4 -141 -8 -265 l-8 -225 27 -25 26 -25 63 65
c291 304 476 502 476 510 0 9 -84 92 -99 98 -4 1 -41 -32 -82 -75 -41 -43
-115 -119 -164 -170 -49 -51 -93 -89 -98 -86 -9 5 -6 117 9 307 l7 89 -64 -6
c-116 -11 -253 -26 -296 -33 -30 -5 -43 -3 -43 5 0 6 42 55 93 109 51 53 123
129 160 167 37 39 67 74 67 78 0 16 -83 97 -99 97 -9 0 -47 -33 -85 -72z"/>
<path d="M10923 7567 c-60 -49 -61 -52 -41 -211 11 -91 14 -99 38 -108 14 -6
34 -14 45 -18 39 -16 159 -50 174 -50 9 0 40 20 69 44 l52 44 -116 38 c-64 21
-122 44 -130 51 -10 11 -14 43 -14 118 0 100 -5 136 -19 134 -3 0 -29 -19 -58
-42z"/>
<path d="M10710 7398 l-53 -42 7 -75 c3 -42 9 -101 12 -133 l6 -56 57 -20 c31
-11 74 -26 96 -32 22 -7 50 -17 63 -23 25 -12 50 -2 103 44 19 16 38 29 42 29
25 0 -11 20 -61 35 -31 9 -64 20 -72 24 -8 4 -36 14 -62 21 -54 16 -58 26 -58
155 0 83 -5 115 -20 115 -4 0 -31 -19 -60 -42z"/>
<path d="M9379 5565 c-3 -2 -36 -9 -74 -14 -86 -12 -124 -20 -150 -31 -11 -5
-33 -11 -50 -15 -43 -9 -85 -19 -220 -55 -66 -17 -138 -36 -160 -41 -22 -5
-92 -23 -155 -40 -63 -17 -133 -36 -155 -41 -22 -6 -50 -14 -63 -19 -13 -5
-34 -9 -47 -9 -13 0 -27 -4 -30 -10 -3 -5 -16 -10 -27 -10 -20 0 -68 -13 -113
-31 -11 -4 -31 -10 -45 -12 -14 -3 -68 -17 -120 -31 -52 -15 -142 -38 -200
-53 -58 -14 -114 -30 -125 -34 -19 -7 -211 -55 -265 -66 -14 -2 -34 -8 -45
-12 -11 -5 -70 -24 -131 -44 -167 -55 -257 -99 -313 -155 -56 -55 -73 -86 -91
-161 -21 -89 14 -204 82 -267 60 -58 119 -77 248 -82 123 -4 152 0 330 48 63
18 131 36 150 40 19 5 51 13 70 19 106 30 199 54 228 58 18 3 35 9 38 14 3 5
14 9 25 9 20 0 153 34 194 50 11 4 61 17 110 30 50 12 122 30 160 40 185 49
233 62 265 71 19 6 51 14 70 19 19 5 51 13 70 18 54 16 252 68 395 106 225 59
309 94 422 173 74 52 107 93 134 165 33 91 21 178 -35 255 -27 37 -71 66 -141
93 -46 19 -224 37 -236 25z"/>
</g>
</svg>
